# xmcd
#
# Track frame offsets:
#	150
#	12420
#	25655
#	38420
#	50539
#	65310
#	80982
#	95167
#	108095
#	122467
#	135457
#	147635
#	161325
#	173007
#	187190
#	197022
#
# Disc length: 2817
#
# Revision: 5
# Processed by: cddbd v1.5.1PL0 Copyright (c) Steve Scherf et al.
# Submitted via: ExactAudioCopy v0.95a5
# Normalized: r4:DSETVAR1,TDELIM( - )
#
DISCID=d50aff10
DTITLE=Various Artist - Chess Blues Classics
DYEAR=1997
DGENRE=Blues
TTITLE0=Muddy Waters - I Can't Be Satisfied
TTITLE1=Little Johnny Jones - Big Town Playboy
TTITLE2=Jimmy Rogers - That's All Right
TTITLE3=Muddy Waters - Long Distance Call
TTITLE4=John Lee Hooker - Sugar Mama
TTITLE5=Eddie Boyd - Twenty-Four Hours
TTITLE6=Little Walter - Blues With A Feeling
TTITLE7=Muddy Waters - I Just Want To Make Love To You
TTITLE8=Lowell Fulson - Reconsider Baby
TTITLE9=J. B. Lenoir - Eisenhower Blues
TTITLE10=Little Walter - My Babe
TTITLE11=Bo Diddley - I'm A Man
TTITLE12=Sonny Boy Williamson - Don't Start Me To Talkin'
TTITLE13=Howlin' Wolf - Smokestack Lightnin'
TTITLE14=Willie Dixon - 29 Ways
TTITLE15=Muddy Waters - Rock Me
EXTD=This is the Chess Records 50th Anniversary Collection, \ncontaining recordings from 1947 to 1956.
EXTT0=(Muddy Waters]\nRecorded April 1948
EXTT1=Little Johnny Jones\nRecorded 1949\nwith Muddy Waters (guitar)
EXTT2=Jimmie Rogers\nRecorded August 15, 1940\nwith Little Walter (Harmonica)
EXTT3=Muddy Waters\nRecorded January 23, 1951\nwith Little Walter (Harmonica)
EXTT4=John Lee Hooker\nRecorded 1952\n
EXTT5=Eddie Boyd\nRecorded October 10, 1952\nRobert Lockwood, Jr. (guitar), Willie Dixon (bass)
EXTT6=Little Walter\nRecorded ~September, 1953
EXTT7=Muddy Waters\nRecorded April 13, 1954\nM. Waters (vocal-guitar), Little Walter (harmonica),\nJimmie Rogers (guitar), Willie Dixon (bass)
EXTT8=Lowell Fulson\nRecorded September 27, 1954\n
EXTT9=J.B. Lenoir\nRecorded October 6, 1954
EXTT10=Little Walter\nRecorded January 25, 1955\nLittle Walter (vocals-harmonica), \nRobert Lockwood, Jr. (guitar),\nLeonard Caston (guitar]\nWillie Dixon (bass)
EXTT11=Bo Diddley\nRecorded March 2, 1955\nWillie Dixon (bass),\nBillie Boy Arnold (harmonica)
EXTT12=Sonny Boy Williamson\nRecorded August 12, 1955\nSonny Boy Williamson (vocals-harmonica),\nMuddy Waters, Jimmie Rogers (guitars),\nWillie Dixon (bass)
EXTT13=Howlin' Wolf\nRecorded January, 1956\nHowlin' Wolf (vocal-harmonica]\nJody Williams, Hubert Sumlin (guitars]\nWillie Dixon (bass)
EXTT14=Willie Dixon\nRecorded July 27, 1956\nWillie Dixon (vocal-bass),\nLafayette Leake (piano]\nOther band members unknown
EXTT15=Muddy Waters\nRecorded December 1, 1956\nMuddy Waters (vocal-guitar),\nJames Cotton (harmonica),\nJimmie Rogers (guitar)
PLAYORDER=
